<svg width="250" height="174" viewBox="0 0 250 174" fill="none" xmlns="http://www.w3.org/2000/svg">
<path d="M86.8845 29.0363L110.063 0.746582L115.987 36.8343L150.205 23.9234L137.294 58.139L173.38 64.0649L145.088 87.2417L173.38 110.419L137.294 116.344L150.205 150.56L115.987 137.649L110.063 173.737L86.8845 145.447L63.7077 173.737L57.7818 137.649L23.5682 150.56L36.4771 116.344L0.389404 110.419L28.681 87.2417L0.389404 64.0649L36.4771 58.139L23.5682 23.9234L57.7818 36.8343L63.7077 0.746582L86.8845 29.0363Z" fill="#000005"/>
<path d="M92.5478 91.2934C92.3058 93.1078 91.6647 94.6682 90.6245 95.9745C89.5842 97.2567 88.1932 98.2486 86.4514 98.9502C84.7337 99.6275 82.7258 99.9662 80.4276 99.9662C78.4438 99.9662 76.6173 99.7001 74.9481 99.1679C73.303 98.6357 71.8636 97.8615 70.6298 96.8455C69.4202 95.8052 68.4767 94.5351 67.7994 93.0352C67.1462 91.5111 66.8196 89.7693 66.8196 87.8098C66.8196 85.826 67.1462 84.0842 67.7994 82.5843C68.4767 81.0844 69.4202 79.8143 70.6298 78.774C71.8636 77.7096 73.303 76.9113 74.9481 76.379C76.6173 75.8468 78.4438 75.5807 80.4276 75.5807C82.75 75.5807 84.77 75.9315 86.4877 76.6331C88.2295 77.3346 89.6205 78.3386 90.6608 79.645C91.701 80.9513 92.33 82.5238 92.5478 84.3624H88.5561C88.2174 83.2738 87.6852 82.3545 86.9594 81.6045C86.2337 80.8304 85.3144 80.2377 84.2015 79.8264C83.1129 79.4151 81.8549 79.2095 80.4276 79.2095C78.6374 79.2095 77.0286 79.5482 75.6013 80.2256C74.174 80.8788 73.049 81.8464 72.2265 83.1286C71.4282 84.3866 71.029 85.947 71.029 87.8098C71.029 89.6483 71.4282 91.2087 72.2265 92.4909C73.049 93.7489 74.174 94.7045 75.6013 95.3576C77.0286 96.0108 78.6374 96.3374 80.4276 96.3374C81.8549 96.3374 83.1129 96.1439 84.2015 95.7568C85.2902 95.3456 86.1974 94.7649 86.9231 94.015C87.6489 93.2408 88.1811 92.3336 88.5198 91.2934H92.5478ZM108.895 99.9662C106.137 99.9662 103.73 99.4703 101.673 98.4784C99.6412 97.4865 98.0566 96.0834 96.9196 94.269C95.8068 92.4546 95.2504 90.2894 95.2504 87.7735C95.2504 85.2575 95.8068 83.0923 96.9196 81.2779C98.0566 79.4393 99.6412 78.0362 101.673 77.0685C103.73 76.0766 106.137 75.5807 108.895 75.5807C111.677 75.5807 114.084 76.0766 116.116 77.0685C118.148 78.0362 119.721 79.4393 120.833 81.2779C121.97 83.0923 122.539 85.2575 122.539 87.7735C122.539 90.2894 121.97 92.4546 120.833 94.269C119.721 96.0834 118.148 97.4865 116.116 98.4784C114.084 99.4703 111.677 99.9662 108.895 99.9662ZM108.895 96.3374C110.733 96.3374 112.354 96.0229 113.757 95.3939C115.16 94.7649 116.261 93.8215 117.059 92.5635C117.882 91.2813 118.293 89.6846 118.293 87.7735C118.293 85.8865 117.882 84.314 117.059 83.056C116.261 81.7739 115.16 80.8183 113.757 80.1893C112.354 79.5361 110.733 79.2095 108.895 79.2095C107.08 79.2095 105.459 79.5361 104.032 80.1893C102.605 80.8183 101.48 81.7739 100.657 83.056C99.8347 84.314 99.4235 85.8865 99.4235 87.7735C99.4235 89.6846 99.8347 91.2813 100.657 92.5635C101.48 93.8215 102.605 94.7649 104.032 95.3939C105.459 96.0229 107.08 96.3374 108.895 96.3374ZM147.92 95.2488L146.687 95.7205V76.0162H150.787V99.5308H146.687L129.051 80.407L130.321 79.9353V99.5308H126.184V76.0162H130.321L147.92 95.2488ZM153.182 76.0162H175.753V79.5724H153.182V76.0162ZM162.435 79.1369H166.536V99.5308H162.435V79.1369ZM179.685 94.015V90.4951H193.692V94.015H179.685ZM174.241 99.5308L184.511 76.0162H188.938L199.28 99.5308H194.817L185.817 78.3023H187.632L178.668 99.5308H174.241ZM225.488 91.2934C225.246 93.1078 224.605 94.6682 223.565 95.9745C222.524 97.2567 221.133 98.2486 219.391 98.9502C217.674 99.6275 215.666 99.9662 213.368 99.9662C211.384 99.9662 209.557 99.7001 207.888 99.1679C206.243 98.6357 204.804 97.8615 203.57 96.8455C202.36 95.8052 201.417 94.5351 200.739 93.0352C200.086 91.5111 199.76 89.7693 199.76 87.8098C199.76 85.826 200.086 84.0842 200.739 82.5843C201.417 81.0844 202.36 79.8143 203.57 78.774C204.804 77.7096 206.243 76.9113 207.888 76.379C209.557 75.8468 211.384 75.5807 213.368 75.5807C215.69 75.5807 217.71 75.9315 219.428 76.6331C221.17 77.3346 222.561 78.3386 223.601 79.645C224.641 80.9513 225.27 82.5238 225.488 84.3624H221.496C221.157 83.2738 220.625 82.3545 219.9 81.6045C219.174 80.8304 218.254 80.2377 217.142 79.8264C216.053 79.4151 214.795 79.2095 213.368 79.2095C211.577 79.2095 209.969 79.5482 208.541 80.2256C207.114 80.8788 205.989 81.8464 205.167 83.1286C204.368 84.3866 203.969 85.947 203.969 87.8098C203.969 89.6483 204.368 91.2087 205.167 92.4909C205.989 93.7489 207.114 94.7045 208.541 95.3576C209.969 96.0108 211.577 96.3374 213.368 96.3374C214.795 96.3374 216.053 96.1439 217.142 95.7568C218.23 95.3456 219.137 94.7649 219.863 94.015C220.589 93.2408 221.121 92.3336 221.46 91.2934H225.488ZM226.248 76.0162H248.819V79.5724H226.248V76.0162ZM235.501 79.1369H239.602V99.5308H235.501V79.1369Z" fill="#FDF7F0"/>
</svg>
