<svg width="253" height="254" viewBox="0 0 253 254" fill="none" xmlns="http://www.w3.org/2000/svg">
<path d="M126.712 42.0653L160.554 0.760742L169.204 53.4509L219.163 34.6003L200.313 84.557L253 93.2091L211.693 127.049L253 160.888L200.313 169.54L219.163 219.497L169.204 200.647L160.554 253.337L126.712 212.032L92.8725 253.337L84.2203 200.647L34.2664 219.497L53.1142 169.54L0.424072 160.888L41.7315 127.049L0.424072 93.2091L53.1142 84.557L34.2664 34.6003L84.2203 53.4509L92.8725 0.760742L126.712 42.0653Z" fill="#000005"/>
<path d="M68.3802 107.559L72.1139 109.07C71.8677 109.936 71.8888 110.819 72.1771 111.719C72.497 112.605 73.0506 113.43 73.8382 114.192C74.6572 114.941 75.6834 115.565 76.9167 116.064C78.0156 116.509 78.9782 116.742 79.8047 116.764C80.6312 116.785 81.308 116.628 81.835 116.294C82.3934 115.945 82.8043 115.446 83.0675 114.796C83.3307 114.146 83.3219 113.555 83.0411 113.024C82.7917 112.479 82.2909 111.911 81.5386 111.319C80.7954 110.705 79.8122 110.007 78.589 109.225C77.5719 108.578 76.6156 107.878 75.7202 107.124C74.8249 106.37 74.0667 105.568 73.4457 104.716C72.8472 103.873 72.4623 102.987 72.2909 102.056C72.1286 101.103 72.2562 100.111 72.6737 99.0794C73.1457 97.9133 73.8974 96.9909 74.929 96.3123C75.9829 95.6428 77.2692 95.3021 78.7876 95.2904C80.3061 95.2787 81.996 95.6495 83.8572 96.4028C86.7051 97.5556 88.6126 99.0975 89.5795 101.029C90.5555 102.937 90.5672 105.004 89.6147 107.228L85.9483 105.744C86.4529 104.304 86.3501 103.075 85.64 102.057C84.9298 101.039 83.8348 100.23 82.3547 99.6312C81.0317 99.0957 79.8264 98.8818 78.7388 98.9897C77.6512 99.0975 76.8941 99.6784 76.4675 100.732C76.2859 101.181 76.228 101.614 76.2937 102.032C76.3908 102.437 76.6316 102.874 77.0161 103.342C77.4096 103.789 77.9825 104.308 78.7348 104.899C79.5186 105.478 80.4839 106.155 81.6307 106.933C82.6345 107.548 83.5438 108.203 84.3585 108.898C85.1733 109.593 85.833 110.317 86.3375 111.069C86.8645 111.831 87.18 112.663 87.2842 113.567C87.3883 114.47 87.2225 115.46 86.7868 116.536C86.2876 117.77 85.5289 118.741 84.5107 119.451C83.5016 120.139 82.2333 120.5 80.7057 120.534C79.2097 120.555 77.4413 120.152 75.4007 119.326C73.8534 118.7 72.5693 117.972 71.5484 117.141C70.5591 116.297 69.7788 115.42 69.2075 114.51C68.6452 113.578 68.2582 112.664 68.0462 111.769C67.8567 110.884 67.7926 110.075 67.854 109.343C67.9469 108.597 68.1223 108.003 68.3802 107.559ZM99.4329 116.213L100.148 114.35L109.036 132.432L103.621 130.24L95.7705 113.752L111.03 107.871L116.379 110.036L99.4329 116.213ZM96.1629 101.853L99.9975 103.406L91.175 125.202L87.3404 123.65L96.1629 101.853ZM120.561 111.729L124.395 113.281L115.573 135.078L111.738 133.526L120.561 111.729ZM133.094 116.802L125.606 135.302L139.196 140.803L137.861 144.099L120.437 137.047L129.26 115.25L133.094 116.802ZM153.733 125.156L146.244 143.656L159.834 149.156L158.499 152.453L141.075 145.4L149.898 123.603L153.733 125.156ZM162.669 145.724L166.403 147.235C166.156 148.101 166.178 148.984 166.466 149.883C166.786 150.77 167.339 151.594 168.127 152.357C168.946 153.106 169.972 153.73 171.205 154.229C172.304 154.674 173.267 154.907 174.093 154.928C174.92 154.95 175.597 154.793 176.124 154.458C176.682 154.11 177.093 153.611 177.356 152.96C177.619 152.31 177.611 151.719 177.33 151.188C177.08 150.644 176.58 150.075 175.827 149.484C175.084 148.87 174.101 148.172 172.878 147.39C171.861 146.743 170.904 146.043 170.009 145.289C169.114 144.535 168.355 143.732 167.734 142.881C167.136 142.038 166.751 141.151 166.58 140.221C166.417 139.268 166.545 138.275 166.962 137.244C167.434 136.078 168.186 135.156 169.218 134.477C170.272 133.807 171.558 133.467 173.076 133.455C174.595 133.443 176.285 133.814 178.146 134.567C180.994 135.72 182.901 137.262 183.868 139.193C184.844 141.102 184.856 143.169 183.903 145.393L180.237 143.909C180.742 142.469 180.639 141.24 179.929 140.222C179.219 139.203 178.123 138.395 176.643 137.796C175.32 137.26 174.115 137.046 173.027 137.154C171.94 137.262 171.183 137.843 170.756 138.897C170.575 139.345 170.517 139.779 170.582 140.197C170.68 140.602 170.92 141.038 171.305 141.507C171.698 141.953 172.271 142.472 173.023 143.064C173.807 143.642 174.773 144.32 175.919 145.097C176.923 145.712 177.832 146.368 178.647 147.063C179.462 147.758 180.122 148.482 180.626 149.234C181.153 149.995 181.469 150.828 181.573 151.731C181.677 152.635 181.511 153.624 181.076 154.701C180.576 155.934 179.818 156.906 178.799 157.616C177.79 158.304 176.522 158.665 174.994 158.699C173.498 158.72 171.73 158.317 169.689 157.491C168.142 156.865 166.858 156.136 165.837 155.305C164.848 154.461 164.067 153.584 163.496 152.675C162.934 151.742 162.547 150.829 162.335 149.934C162.145 149.048 162.081 148.239 162.143 147.507C162.236 146.762 162.411 146.167 162.669 145.724Z" fill="#FDF7F0"/>
</svg>
