<svg width="250" height="173" viewBox="0 0 250 173" fill="none" xmlns="http://www.w3.org/2000/svg">
<path d="M86.8845 28.2816L110.063 -0.00805664L115.987 36.0796L150.205 23.1688L137.294 57.3843L173.38 63.3102L145.088 86.4871L173.38 109.664L137.294 115.59L150.205 149.805L115.987 136.894L110.063 172.982L86.8845 144.693L63.7077 172.982L57.7818 136.894L23.5682 149.805L36.4771 115.59L0.389404 109.664L28.681 86.4871L0.389404 63.3102L36.4771 57.3843L23.5682 23.1688L57.7818 36.0796L63.7077 -0.00805664L86.8845 28.2816Z" fill="#AB9884"/>
<path d="M92.5478 90.5388C92.3058 92.3532 91.6647 93.9135 90.6245 95.2199C89.5842 96.5021 88.1932 97.4939 86.4514 98.1955C84.7337 98.8729 82.7258 99.2116 80.4276 99.2116C78.4438 99.2116 76.6173 98.9455 74.9481 98.4132C73.303 97.881 71.8636 97.1069 70.6298 96.0908C69.4202 95.0506 68.4767 93.7805 67.7994 92.2806C67.1462 90.7565 66.8196 89.0147 66.8196 87.0551C66.8196 85.0714 67.1462 83.3295 67.7994 81.8296C68.4767 80.3297 69.4202 79.0597 70.6298 78.0194C71.8636 76.955 73.303 76.1566 74.9481 75.6244C76.6173 75.0922 78.4438 74.8261 80.4276 74.8261C82.75 74.8261 84.77 75.1769 86.4877 75.8784C88.2295 76.58 89.6205 77.584 90.6608 78.8903C91.701 80.1967 92.33 81.7692 92.5478 83.6078H88.5561C88.2174 82.5191 87.6852 81.5998 86.9594 80.8499C86.2337 80.0757 85.3144 79.483 84.2015 79.0718C83.1129 78.6605 81.8549 78.4549 80.4276 78.4549C78.6374 78.4549 77.0286 78.7936 75.6013 79.4709C74.174 80.1241 73.049 81.0918 72.2265 82.374C71.4282 83.6319 71.029 85.1923 71.029 87.0551C71.029 88.8937 71.4282 90.4541 72.2265 91.7363C73.049 92.9942 74.174 93.9498 75.6013 94.603C77.0286 95.2562 78.6374 95.5828 80.4276 95.5828C81.8549 95.5828 83.1129 95.3892 84.2015 95.0022C85.2902 94.5909 86.1974 94.0103 86.9231 93.2604C87.6489 92.4862 88.1811 91.579 88.5198 90.5388H92.5478ZM108.895 99.2116C106.137 99.2116 103.73 98.7156 101.673 97.7238C99.6412 96.7319 98.0566 95.3288 96.9196 93.5144C95.8068 91.7 95.2504 89.5348 95.2504 87.0188C95.2504 84.5029 95.8068 82.3377 96.9196 80.5233C98.0566 78.6847 99.6412 77.2816 101.673 76.3139C103.73 75.322 106.137 74.8261 108.895 74.8261C111.677 74.8261 114.084 75.322 116.116 76.3139C118.148 77.2816 119.721 78.6847 120.833 80.5233C121.97 82.3377 122.539 84.5029 122.539 87.0188C122.539 89.5348 121.97 91.7 120.833 93.5144C119.721 95.3288 118.148 96.7319 116.116 97.7238C114.084 98.7156 111.677 99.2116 108.895 99.2116ZM108.895 95.5828C110.733 95.5828 112.354 95.2683 113.757 94.6393C115.16 94.0103 116.261 93.0668 117.059 91.8088C117.882 90.5267 118.293 88.93 118.293 87.0188C118.293 85.1318 117.882 83.5594 117.059 82.3014C116.261 81.0192 115.16 80.0636 113.757 79.4346C112.354 78.7815 110.733 78.4549 108.895 78.4549C107.08 78.4549 105.459 78.7815 104.032 79.4346C102.605 80.0636 101.48 81.0192 100.657 82.3014C99.8347 83.5594 99.4235 85.1318 99.4235 87.0188C99.4235 88.93 99.8347 90.5267 100.657 91.8088C101.48 93.0668 102.605 94.0103 104.032 94.6393C105.459 95.2683 107.08 95.5828 108.895 95.5828ZM147.92 94.4941L146.687 94.9659V75.2615H150.787V98.7761H146.687L129.051 79.6524L130.321 79.1806V98.7761H126.184V75.2615H130.321L147.92 94.4941ZM153.182 75.2615H175.753V78.8177H153.182V75.2615ZM162.435 78.3823H166.536V98.7761H162.435V78.3823ZM179.685 93.2604V89.7404H193.692V93.2604H179.685ZM174.241 98.7761L184.511 75.2615H188.938L199.28 98.7761H194.817L185.817 77.5477H187.632L178.668 98.7761H174.241ZM225.488 90.5388C225.246 92.3532 224.605 93.9135 223.565 95.2199C222.524 96.5021 221.133 97.4939 219.391 98.1955C217.674 98.8729 215.666 99.2116 213.368 99.2116C211.384 99.2116 209.557 98.9455 207.888 98.4132C206.243 97.881 204.804 97.1069 203.57 96.0908C202.36 95.0506 201.417 93.7805 200.739 92.2806C200.086 90.7565 199.76 89.0147 199.76 87.0551C199.76 85.0714 200.086 83.3295 200.739 81.8296C201.417 80.3297 202.36 79.0597 203.57 78.0194C204.804 76.955 206.243 76.1566 207.888 75.6244C209.557 75.0922 211.384 74.8261 213.368 74.8261C215.69 74.8261 217.71 75.1769 219.428 75.8784C221.17 76.58 222.561 77.584 223.601 78.8903C224.641 80.1967 225.27 81.7692 225.488 83.6078H221.496C221.157 82.5191 220.625 81.5998 219.9 80.8499C219.174 80.0757 218.254 79.483 217.142 79.0718C216.053 78.6605 214.795 78.4549 213.368 78.4549C211.577 78.4549 209.969 78.7936 208.541 79.4709C207.114 80.1241 205.989 81.0918 205.167 82.374C204.368 83.6319 203.969 85.1923 203.969 87.0551C203.969 88.8937 204.368 90.4541 205.167 91.7363C205.989 92.9942 207.114 93.9498 208.541 94.603C209.969 95.2562 211.577 95.5828 213.368 95.5828C214.795 95.5828 216.053 95.3892 217.142 95.0022C218.23 94.5909 219.137 94.0103 219.863 93.2604C220.589 92.4862 221.121 91.579 221.46 90.5388H225.488ZM226.248 75.2615H248.819V78.8177H226.248V75.2615ZM235.501 78.3823H239.602V98.7761H235.501V78.3823Z" fill="#FDF7F0"/>
</svg>
