<svg width="253" height="254" viewBox="0 0 253 254" fill="none" xmlns="http://www.w3.org/2000/svg">
<path d="M126.43 42.0653L160.272 0.760742L168.921 53.4509L218.881 34.6003L200.03 84.557L252.718 93.2091L211.41 127.049L252.718 160.888L200.03 169.54L218.881 219.497L168.921 200.647L160.272 253.337L126.43 212.032L92.59 253.337L83.9379 200.647L33.984 219.497L52.8317 169.54L0.141602 160.888L41.449 127.049L0.141602 93.2091L52.8317 84.557L33.984 34.6003L83.9379 53.4509L92.59 0.760742L126.43 42.0653Z" fill="#AB9884"/>
<path d="M68.0977 107.559L71.8314 109.07C71.5853 109.936 71.6063 110.819 71.8947 111.719C72.2145 112.605 72.7682 113.43 73.5557 114.192C74.3747 114.941 75.4009 115.565 76.6343 116.064C77.7331 116.509 78.6957 116.742 79.5223 116.764C80.3488 116.785 81.0255 116.628 81.5525 116.294C82.111 115.945 82.5218 115.446 82.785 114.796C83.0483 114.146 83.0395 113.555 82.7586 113.024C82.5093 112.479 82.0085 111.911 81.2562 111.319C80.5129 110.705 79.5297 110.007 78.3065 109.225C77.2894 108.578 76.3332 107.878 75.4378 107.124C74.5424 106.37 73.7842 105.568 73.1633 104.716C72.5647 103.873 72.1798 102.987 72.0084 102.056C71.8461 101.103 71.9737 100.111 72.3912 99.0794C72.8632 97.9133 73.615 96.9909 74.6465 96.3123C75.7005 95.6428 76.9867 95.3021 78.5052 95.2904C80.0236 95.2787 81.7135 95.6495 83.5747 96.4028C86.4227 97.5556 88.3301 99.0975 89.297 101.029C90.273 102.937 90.2848 105.004 89.3323 107.228L85.6658 105.744C86.1704 104.304 86.0676 103.075 85.3575 102.057C84.6474 101.039 83.5523 100.23 82.0723 99.6312C80.7492 99.0957 79.5439 98.8818 78.4563 98.9897C77.3687 99.0975 76.6116 99.6784 76.185 100.732C76.0035 101.181 75.9455 101.614 76.0112 102.032C76.1084 102.437 76.3492 102.874 76.7336 103.342C77.1271 103.789 77.7 104.308 78.4523 104.899C79.2361 105.478 80.2014 106.155 81.3483 106.933C82.352 107.548 83.2613 108.203 84.0761 108.898C84.8908 109.593 85.5505 110.317 86.055 111.069C86.582 111.831 86.8976 112.663 87.0017 113.567C87.1058 114.47 86.94 115.46 86.5043 116.536C86.0051 117.77 85.2464 118.741 84.2282 119.451C83.2191 120.139 81.9508 120.5 80.4232 120.534C78.9272 120.555 77.1588 120.152 75.1182 119.326C73.5709 118.7 72.2868 117.972 71.266 117.141C70.2766 116.297 69.4963 115.42 68.925 114.51C68.3628 113.578 67.9757 112.664 67.7637 111.769C67.5742 110.884 67.5101 110.075 67.5715 109.343C67.6644 108.597 67.8398 108.003 68.0977 107.559ZM99.1504 116.213L99.8656 114.35L108.754 132.432L103.338 130.24L95.488 113.752L110.748 107.871L116.096 110.036L99.1504 116.213ZM95.8804 101.853L99.715 103.406L90.8925 125.202L87.0579 123.65L95.8804 101.853ZM120.278 111.729L124.113 113.281L115.29 135.078L111.456 133.526L120.278 111.729ZM132.812 116.802L125.324 135.302L138.913 140.803L137.579 144.099L120.155 137.047L128.977 115.25L132.812 116.802ZM153.45 125.156L145.962 143.656L159.551 149.156L158.217 152.453L140.793 145.4L149.616 123.603L153.45 125.156ZM162.386 145.724L166.12 147.235C165.874 148.101 165.895 148.984 166.183 149.883C166.503 150.77 167.057 151.594 167.844 152.357C168.663 153.106 169.69 153.73 170.923 154.229C172.022 154.674 172.984 154.907 173.811 154.928C174.637 154.95 175.314 154.793 175.841 154.458C176.4 154.11 176.811 153.611 177.074 152.96C177.337 152.31 177.328 151.719 177.047 151.188C176.798 150.644 176.297 150.075 175.545 149.484C174.802 148.87 173.818 148.172 172.595 147.39C171.578 146.743 170.622 146.043 169.726 145.289C168.831 144.535 168.073 143.732 167.452 142.881C166.853 142.038 166.468 141.151 166.297 140.221C166.135 139.268 166.262 138.275 166.68 137.244C167.152 136.078 167.904 135.156 168.935 134.477C169.989 133.807 171.275 133.467 172.794 133.455C174.312 133.443 176.002 133.814 177.863 134.567C180.711 135.72 182.619 137.262 183.586 139.193C184.562 141.102 184.573 143.169 183.621 145.393L179.955 143.909C180.459 142.469 180.356 141.24 179.646 140.222C178.936 139.203 177.841 138.395 176.361 137.796C175.038 137.26 173.833 137.046 172.745 137.154C171.657 137.262 170.9 137.843 170.474 138.897C170.292 139.345 170.234 139.779 170.3 140.197C170.397 140.602 170.638 141.038 171.022 141.507C171.416 141.953 171.989 142.472 172.741 143.064C173.525 143.642 174.49 144.32 175.637 145.097C176.641 145.712 177.55 146.368 178.365 147.063C179.18 147.758 179.839 148.482 180.344 149.234C180.871 149.995 181.186 150.828 181.29 151.731C181.394 152.635 181.229 153.624 180.793 154.701C180.294 155.934 179.535 156.906 178.517 157.616C177.508 158.304 176.239 158.665 174.712 158.699C173.216 158.72 171.448 158.317 169.407 157.491C167.86 156.865 166.576 156.136 165.555 155.305C164.565 154.461 163.785 153.584 163.214 152.675C162.651 151.742 162.264 150.829 162.052 149.934C161.863 149.048 161.799 148.239 161.86 147.507C161.953 146.762 162.129 146.167 162.386 145.724Z" fill="#FDF7F0"/>
</svg>
